<svg xmlns="http://www.w3.org/2000/svg" viewBox="0 0 24 24" id="android"><path fill="#303c42" d="M3.5 8C2.673 8 2 8.673 2 9.5v6c0 .827.673 1.5 1.5 1.5S5 16.327 5 15.5v-6C5 8.673 4.327 8 3.5 8z"></path><path fill="#8bc34a" d="M4 15.5a.5.5 0 0 1-1 0v-6a.5.5 0 0 1 1 0v6z"></path><path fill="#303c42" d="M20.5 8c-.827 0-1.5.673-1.5 1.5v6c0 .827.673 1.5 1.5 1.5s1.5-.673 1.5-1.5v-6c0-.827-.673-1.5-1.5-1.5z"></path><path fill="#8bc34a" d="M21 15.5a.5.5 0 0 1-1 0v-6a.5.5 0 0 1 1 0v6z"></path><path fill="#303c42" d="M6.027 6.455A.497.497 0 0 0 6.525 7h10.949a.498.498 0 0 0 .498-.545 5.944 5.944 0 0 0-2.427-4.278l.879-1.413a.5.5 0 1 0-.85-.528l-.883 1.42C13.879 1.249 12.973 1 12 1s-1.879.249-2.692.656L8.425.236a.5.5 0 0 0-.85.528l.879 1.413a5.947 5.947 0 0 0-2.427 4.278z"></path><path fill="#8bc34a" d="M12 2a4.969 4.969 0 0 1 4.898 4H7.102A4.969 4.969 0 0 1 12 2z"></path><path fill="#303c42" d="M17.5 8h-11a.5.5 0 0 0-.5.5V17c0 1.103.897 2 2 2v3.5c0 .827.673 1.5 1.5 1.5s1.5-.673 1.5-1.5V19h2v3.5c0 .827.673 1.5 1.5 1.5s1.5-.673 1.5-1.5V19c1.103 0 2-.897 2-2V8.5a.5.5 0 0 0-.5-.5z"></path><path fill="#8bc34a" d="M17 17c0 .551-.449 1-1 1h-.5a.5.5 0 0 0-.5.5v4a.5.5 0 0 1-1 0v-4a.5.5 0 0 0-.5-.5h-3a.5.5 0 0 0-.5.5v4a.5.5 0 0 1-1 0v-4a.5.5 0 0 0-.5-.5H8c-.551 0-1-.449-1-1V9h10v8z"></path><circle cx="9.5" cy="4.5" r=".5" fill="#303c42"></circle><circle cx="14.5" cy="4.5" r=".5" fill="#303c42"></circle><linearGradient id="a" x1="10.489" x2="19.006" y1="6.83" y2="15.346" gradientUnits="userSpaceOnUse"><stop offset="0" stop-opacity=".1"></stop><stop offset="1" stop-opacity="0"></stop></linearGradient><path fill="url(#a)" d="M16.835 17.516A.972.972 0 0 0 17 17V9H8.319l8.516 8.516z"></path><linearGradient id="b" x1="2.815" x2="21.796" y1="7.419" y2="16.27" gradientUnits="userSpaceOnUse"><stop offset="0" stop-color="#fff" stop-opacity=".2"></stop><stop offset="1" stop-color="#fff" stop-opacity="0"></stop></linearGradient><path fill="url(#b)" d="M3.5 8C2.673 8 2 8.673 2 9.5v6c0 .827.673 1.5 1.5 1.5S5 16.327 5 15.5v-6C5 8.673 4.327 8 3.5 8zm17 0c-.827 0-1.5.673-1.5 1.5v6c0 .827.673 1.5 1.5 1.5s1.5-.673 1.5-1.5v-6c0-.827-.673-1.5-1.5-1.5zM6.027 6.455A.497.497 0 0 0 6.525 7h10.949a.498.498 0 0 0 .498-.545 5.944 5.944 0 0 0-2.427-4.278l.879-1.413a.5.5 0 1 0-.85-.528l-.883 1.42C13.879 1.249 12.973 1 12 1s-1.879.249-2.692.656L8.425.236a.5.5 0 0 0-.85.528l.879 1.413a5.947 5.947 0 0 0-2.427 4.278zM17.5 8h-11a.5.5 0 0 0-.5.5V17c0 1.103.897 2 2 2v3.5c0 .827.673 1.5 1.5 1.5s1.5-.673 1.5-1.5V19h2v3.5c0 .827.673 1.5 1.5 1.5s1.5-.673 1.5-1.5V19c1.103 0 2-.897 2-2V8.5a.5.5 0 0 0-.5-.5z"></path></svg>